<svg width="175" height="38" viewBox="0 0 175 38" fill="none" xmlns="http://www.w3.org/2000/svg">
<path d="M47.4436 19.7869V8.40918H52.9506V28.2205H47.6641V24.6222H47.4585C47.0115 25.782 46.2666 26.7158 45.2295 27.4206C44.1925 28.1254 42.9261 28.4792 41.4361 28.4792C40.11 28.4792 38.9419 28.1789 37.9347 27.5752C36.9274 26.9745 36.1407 26.1181 35.5745 25.0088C35.0113 23.8996 34.7223 22.5703 34.7163 21.024V8.40918H40.2232V20.0426C40.2322 21.2113 40.5451 22.1362 41.1679 22.8172C41.7877 23.4952 42.6191 23.8372 43.6621 23.8372C44.3266 23.8372 44.9465 23.6855 45.5246 23.3792C46.1027 23.0729 46.5705 22.6209 46.9281 22.0172C47.2857 21.4165 47.4585 20.6701 47.4526 19.7869H47.4436Z" fill="white"/>
<path d="M71.1431 18.6216C70.1925 17.7443 68.7532 17.1079 66.8222 16.7124L63.2284 15.9927C62.3106 15.7965 61.6609 15.5288 61.2795 15.2047C60.904 14.8805 60.7133 14.4791 60.7133 14.0033C60.7133 13.4115 61.0054 12.9357 61.5924 12.5788C62.1795 12.222 62.8976 12.0436 63.7529 12.0436C64.3906 12.0436 64.9388 12.1506 65.3978 12.3618C65.8626 12.5729 66.2321 12.8524 66.5182 13.2004C66.703 13.4293 66.849 13.6762 66.9444 13.9438H72.0937C71.8374 12.1744 70.9971 10.7708 69.5816 9.73293C68.1423 8.67724 66.1666 8.15088 63.6545 8.15088C61.9589 8.15088 60.4809 8.3977 59.2203 8.89432C57.9598 9.39689 56.9765 10.1017 56.2821 11.0236C55.5878 11.9454 55.2421 13.0398 55.2421 14.3126C55.2421 15.7935 55.713 17.0098 56.6576 17.9644C57.6022 18.9189 59.0416 19.591 60.9845 19.9746L64.4204 20.6616C65.2816 20.8341 65.9193 21.0809 66.3335 21.3991C66.7477 21.7232 66.9593 22.1366 66.9712 22.6332C66.9593 23.225 66.6583 23.7157 66.0712 24.0844C65.4782 24.4591 64.7005 24.6494 63.7379 24.6494C62.7754 24.6494 61.947 24.4383 61.3153 24.019C60.8385 23.7008 60.4928 23.2696 60.2842 22.7284H54.7534C55.0663 24.5037 55.9633 25.9133 57.4503 26.963C59.0058 28.0574 61.0947 28.6046 63.726 28.6046C65.4454 28.6046 66.9712 28.331 68.2943 27.7838C69.6144 27.2426 70.6574 26.4813 71.4173 25.494C72.1831 24.5156 72.5645 23.3766 72.5645 22.0801C72.5645 20.6556 72.0877 19.4988 71.1431 18.6216Z" fill="white"/>
<path d="M93.8176 19.7218V18.2141C93.8176 16.528 93.5822 15.053 93.1114 13.7951C92.6346 12.5372 91.97 11.4874 91.1237 10.6548C90.2774 9.8221 89.2881 9.19761 88.1527 8.7783C87.0173 8.359 85.7956 8.15381 84.4874 8.15381C82.5385 8.15381 80.8429 8.57906 79.4006 9.43848C77.9553 10.3039 76.8379 11.4993 76.0422 13.0368C75.2526 14.5772 74.8562 16.3614 74.8562 18.4044C74.8562 20.4474 75.2526 22.3031 76.0422 23.8286C76.8379 25.3542 77.9673 26.5318 79.4394 27.3585C80.9055 28.1912 82.6637 28.6045 84.7019 28.6045C86.3409 28.6045 87.7862 28.3577 89.0407 27.8551C90.2893 27.3466 91.3144 26.6478 92.113 25.7378C92.87 24.8724 93.3825 23.8732 93.6566 22.7283H88.3613C88.2034 23.0079 88.0097 23.2577 87.7802 23.4718C87.4167 23.8137 86.9846 24.0754 86.475 24.2479C85.9655 24.4204 85.4052 24.5037 84.7913 24.5037C83.8735 24.5037 83.0779 24.3133 82.4014 23.9238C81.7309 23.5372 81.2095 22.99 80.8459 22.2704C80.4764 21.5566 80.2976 20.7121 80.2976 19.7337V19.7218H93.8146H93.8176ZM80.8548 14.3601C81.2184 13.7178 81.716 13.2092 82.3597 12.8286C83.0034 12.448 83.7424 12.2487 84.5768 12.2487C85.4111 12.2487 86.0817 12.4271 86.6926 12.7751C87.2975 13.1171 87.7772 13.6018 88.1199 14.2114C88.4626 14.821 88.6355 15.5228 88.6355 16.3109H80.3065C80.3393 15.5972 80.5181 14.9489 80.8548 14.3571V14.3601Z" fill="white"/>
<path d="M169.508 3.39848V11.4158H169.341C169.1 10.8805 168.748 10.3333 168.283 9.78022C167.824 9.2271 167.22 8.76319 166.475 8.38849C165.73 8.01379 164.806 7.82942 163.688 7.82942C162.234 7.82942 160.896 8.20412 159.68 8.95648C158.455 9.71182 157.481 10.8389 156.748 12.3525C156.015 13.8602 155.651 15.7486 155.651 18.0176C155.651 20.2866 156.009 22.0947 156.715 23.6083C157.43 25.1279 158.39 26.2728 159.609 27.0549C160.833 27.8311 162.195 28.2177 163.7 28.2177C164.77 28.2177 165.676 28.0452 166.421 27.6883C167.166 27.3374 167.78 26.8943 168.245 26.3531C168.715 25.8178 169.079 25.2707 169.341 24.7264H169.571V28.2177H175V1.61719L169.508 3.39848ZM169.127 21.0776C168.796 21.9549 168.325 22.6359 167.705 23.1176C167.088 23.6083 166.334 23.8492 165.449 23.8492C164.564 23.8492 163.787 23.6024 163.167 23.1057C162.55 22.6091 162.082 21.9222 161.757 21.0449C161.432 20.1617 161.272 19.1447 161.272 17.9908C161.272 16.837 161.429 15.8408 161.748 14.9695C162.067 14.1041 162.538 13.4231 163.158 12.9354C163.784 12.4447 164.541 12.1979 165.446 12.1979C166.352 12.1979 167.091 12.4388 167.708 12.9116C168.325 13.3815 168.805 14.0565 169.13 14.9219C169.46 15.7932 169.621 16.8162 169.621 17.9938C169.621 19.1714 169.454 20.2004 169.124 21.0776H169.127Z" fill="white"/>
<path d="M132.762 8.43604V28.2206H127.255V10.1787L132.762 8.43604Z" fill="white"/>
<path d="M132.762 3.61557V8.43607L132.747 8.43012L127.255 6.69344V1.61719L132.762 3.61557Z" fill="#FFFF00"/>
<path d="M152.504 11.6272C151.938 10.515 151.14 9.65557 150.115 9.05784C149.089 8.45416 147.886 8.15381 146.509 8.15381C145.037 8.15381 143.782 8.48985 142.748 9.16489C141.708 9.83994 140.975 10.7559 140.537 11.9067H140.302V10.0897L135.057 8.43632V28.2209H140.564V16.7659C140.57 15.9213 140.737 15.1898 141.05 14.5831C141.362 13.9735 141.8 13.5155 142.37 13.1973C142.93 12.8791 143.585 12.7215 144.327 12.7215C145.43 12.7215 146.297 13.0576 146.929 13.7445C147.555 14.4255 147.865 15.3712 147.859 16.5875V28.2179H153.366V15.6061C153.366 14.0657 153.08 12.7394 152.51 11.6242L152.504 11.6272Z" fill="white"/>
<path d="M32.4187 8.40918H26.9595V28.2205H32.4187V8.40918Z" fill="white"/>
<path d="M21.6612 28.2205H16.2019L21.5151 8.40918H26.9744L21.6612 28.2205Z" fill="white"/>
<path d="M16.2168 8.40918H10.7576V28.2205H16.2168V8.40918Z" fill="white"/>
<path d="M5.45924 28.2205H0L5.31024 8.40918H10.7725L5.45924 28.2205Z" fill="white"/>
<path d="M96.1121 28.2473V8.43597H101.36V11.9302H101.592C102.006 10.7704 102.695 9.85446 103.66 9.18238C104.626 8.51031 105.779 8.17725 107.123 8.17725C108.467 8.17725 109.644 8.51626 110.601 9.18833C111.557 9.86338 112.195 10.7763 112.514 11.9302H112.719C113.125 10.7942 113.858 9.88717 114.924 9.2032C115.988 8.51923 117.249 8.17725 118.706 8.17725C120.56 8.17725 122.064 8.76308 123.224 9.93772C124.383 11.1124 124.961 12.7747 124.961 14.9218V28.2443H119.469V16.0042C119.469 14.9039 119.177 14.0772 118.59 13.5271C118.003 12.9769 117.273 12.7004 116.394 12.7004C115.395 12.7004 114.615 13.0156 114.054 13.649C113.494 14.2824 113.214 15.1121 113.214 16.144V28.2414H107.877V15.8853C107.877 14.9129 107.6 14.1397 107.043 13.5628C106.485 12.9859 105.755 12.6974 104.852 12.6974C104.241 12.6974 103.69 12.8491 103.204 13.1554C102.719 13.4617 102.331 13.8869 102.048 14.4311C101.765 14.9783 101.622 15.6147 101.622 16.3462V28.2384H96.115L96.1121 28.2473Z" fill="white"/>
</svg>
