<svg width="20" height="20" viewBox="0 0 20 20" fill="none" xmlns="http://www.w3.org/2000/svg">
<g id="Solid/Status/Star">
<path id="Icon" d="M11.0914 2.92974C10.7831 2.39842 10.0158 2.39842 9.70751 2.92974L7.53627 6.67159C7.38397 6.93406 7.12073 7.11317 6.82068 7.15849L2.75163 7.77307C2.06821 7.87629 1.82848 8.73918 2.36072 9.18014L5.392 11.6915C5.67259 11.924 5.80453 12.2907 5.73636 12.6486L4.94343 16.8127C4.81808 17.471 5.50911 17.9825 6.10203 17.6703L9.93356 15.6528C10.2252 15.4992 10.5737 15.4992 10.8654 15.6528L14.6969 17.6703C15.2898 17.9825 15.9808 17.471 15.8555 16.8127L15.0626 12.6486C14.9944 12.2907 15.1263 11.924 15.4069 11.6915L18.4382 9.18014C18.9704 8.73918 18.7307 7.87629 18.0473 7.77307L13.9782 7.15849C13.6782 7.11317 13.4149 6.93406 13.2627 6.67159L11.0914 2.92974Z" fill="#F63D34"/>
</g>
</svg>
